<?xml version="1.0" standalone="no"?>
<!DOCTYPE svg PUBLIC "-//W3C//DTD SVG 20010904//EN"
 "http://www.w3.org/TR/2001/REC-SVG-20010904/DTD/svg10.dtd">
<svg version="1.0" xmlns="http://www.w3.org/2000/svg"
 width="1024.000000pt" height="1024.000000pt" viewBox="0 0 1024.000000 1024.000000"
 preserveAspectRatio="xMidYMid meet">

<g transform="translate(0.000000,1024.000000) scale(0.100000,-0.100000)"
fill="#000000" stroke="none">
<path d="M4830 9380 c-234 -15 -619 -75 -810 -126 -601 -161 -1141 -428 -1615
-798 -299 -234 -624 -566 -837 -856 -493 -673 -783 -1454 -838 -2258 -18 -278
-9 -564 29 -863 42 -324 143 -713 258 -993 l29 -69 294 2 c484 2 770 27 1180
102 378 69 832 209 1227 378 424 181 988 503 1027 586 43 91 -10 182 -116 200
-34 6 -49 1 -121 -40 -463 -262 -1145 -543 -1627 -669 -417 -108 -995 -186
-1390 -186 l-119 0 -25 77 c-48 153 -103 435 -132 673 -28 236 -33 704 -9 837
6 33 6 33 -82 73 -151 70 -202 145 -158 230 19 37 57 59 191 110 l110 42 28
116 c111 458 321 917 585 1277 36 50 70 93 76 97 12 9 10 11 -45 38 -171 84
-213 128 -186 194 16 39 48 58 161 99 39 14 138 52 220 85 83 32 182 70 220
82 57 19 87 38 165 105 341 292 647 493 991 651 255 117 566 221 792 265 889
173 1711 61 2502 -341 427 -216 729 -440 1073 -795 l167 -173 98 -26 c215 -57
436 -174 563 -298 l51 -50 52 22 c28 13 51 28 51 35 0 20 -138 231 -247 376
-315 421 -741 824 -1157 1094 -148 96 -227 139 -441 244 -487 238 -931 371
-1445 430 -200 23 -554 33 -740 21z"/>
<path d="M4777 8679 c-439 -45 -787 -143 -1182 -333 -266 -128 -592 -356 -641
-448 -20 -39 -17 -80 9 -118 47 -71 112 -65 229 22 257 191 556 356 830 458
494 183 999 233 1553 154 399 -57 903 -242 1281 -471 206 -125 215 -129 263
-115 69 21 92 98 48 163 -41 62 -276 215 -493 323 -166 82 -301 137 -474 194
-398 130 -648 172 -1075 177 -143 2 -299 -1 -348 -6z"/>
<path d="M2490 7589 c-58 -22 -162 -60 -233 -86 -70 -26 -126 -52 -124 -58 1
-5 462 -239 1023 -520 561 -280 1074 -539 1140 -574 264 -142 267 -143 251
-153 -16 -8 -303 -123 -532 -211 -66 -26 -189 -73 -274 -106 l-154 -60 -55 42
c-30 23 -67 51 -81 62 -15 11 -161 128 -325 260 -433 348 -423 341 -455 328
-14 -5 -96 -36 -181 -68 -85 -32 -157 -60 -159 -62 -5 -4 31 -93 184 -458 181
-429 176 -415 156 -415 -19 0 -481 89 -774 149 l-189 39 -159 -68 c-88 -37
-162 -69 -164 -72 -5 -5 164 -79 430 -188 312 -128 608 -250 632 -260 22 -9
22 -9 -12 -61 -61 -90 -39 -170 60 -219 47 -23 62 -25 229 -28 l180 -4 100
-91 c56 -51 126 -115 156 -143 30 -28 76 -70 102 -93 l46 -42 96 45 c70 33 96
50 96 63 0 10 -8 77 -18 149 l-18 132 96 7 c450 31 1067 141 1420 253 80 25
156 46 170 45 14 0 57 -7 95 -16 142 -33 311 -16 500 50 125 44 146 48 154 35
3 -5 27 -34 52 -63 240 -279 802 -939 913 -1071 l138 -167 62 23 c33 13 135
52 226 86 91 35 166 64 168 65 2 2 -45 168 -103 369 -58 202 -105 371 -105
376 0 6 10 10 21 10 36 0 223 67 324 116 111 54 167 108 190 187 58 196 -67
450 -245 497 -109 28 -160 20 -371 -61 -72 -27 -137 -48 -144 -46 -12 5 -62
164 -54 172 3 2 227 78 499 168 540 180 675 230 834 307 439 214 584 482 407
752 -81 124 -182 211 -341 292 -267 138 -588 177 -921 110 -146 -29 -492 -154
-1133 -410 -116 -46 -216 -84 -223 -84 -7 0 -19 13 -27 29 -24 45 -102 108
-162 131 -111 41 -172 30 -459 -83 -77 -30 -156 -60 -175 -67 -42 -15 3 -28
-1405 405 -209 65 -407 125 -440 135 -70 21 -768 237 -805 249 -19 6 -51 -1
-130 -30z m5467 -415 c98 -14 300 -70 290 -80 -3 -3 -33 0 -68 6 -82 13 -204
13 -251 0 -20 -6 -46 -22 -58 -37 -22 -28 -27 -88 -8 -99 7 -5 105 -9 218 -9
147 -1 227 -6 284 -18 44 -9 82 -14 85 -11 3 2 0 18 -6 35 l-11 29 37 -29 c49
-39 111 -107 138 -151 23 -39 58 -139 50 -146 -2 -2 -49 7 -105 20 -55 13
-144 30 -197 37 -140 17 -481 7 -663 -21 -79 -12 -146 -19 -148 -17 -3 2 -7
49 -11 103 -5 92 10 217 34 280 5 15 1 16 -33 10 -69 -12 -131 -36 -152 -59
-40 -43 -57 -121 -57 -263 l0 -132 -85 -27 c-123 -40 -371 -127 -547 -192
l-152 -56 -53 15 c-29 9 -107 33 -173 53 -66 21 -132 40 -146 42 l-26 5 1 101
1 101 120 49 c167 67 695 273 900 350 313 118 537 149 792 111z m-2231 -378
c-20 -60 -21 -190 -1 -246 8 -24 14 -44 13 -45 -2 -1 -55 -21 -118 -45 -63
-23 -144 -55 -179 -71 -35 -16 -67 -29 -71 -29 -4 0 -15 30 -25 66 -31 115 -7
241 55 286 24 17 331 138 338 132 2 -1 -4 -23 -12 -48z m214 -16 c84 -89 101
-330 24 -330 -33 0 -60 30 -95 103 -33 71 -39 163 -15 222 19 44 48 46 86 5z
m2210 -322 c-345 -28 -820 -156 -1555 -418 -205 -72 -297 -106 -575 -210 -106
-39 -336 -128 -535 -206 -377 -147 -587 -221 -863 -305 -168 -51 -642 -172
-648 -166 -2 1 108 47 244 101 136 54 544 217 907 362 861 343 1233 482 1730
649 478 160 720 203 1140 203 223 -1 245 -2 155 -10z m-5155 -339 c50 -41 139
-112 198 -159 145 -112 257 -208 257 -220 0 -25 -40 -4 -118 62 -107 91 -419
371 -452 406 l-25 26 25 -20 c14 -11 66 -54 115 -95z m1935 -170 l210 -142
-202 -79 c-291 -114 -728 -281 -903 -345 -253 -93 -798 -275 -935 -313 -36
-10 -105 -30 -155 -44 -133 -38 -296 -68 -356 -64 l-53 3 64 42 c36 22 148 87
250 143 101 56 196 109 210 118 32 20 80 64 80 73 0 4 -27 25 -60 47 l-60 40
183 72 c442 174 777 305 1292 505 61 24 130 52 155 63 25 11 50 21 57 21 7 1
107 -63 223 -140z m2475 -502 c-19 -46 -20 -176 0 -239 16 -56 21 -51 -103
-97 -43 -16 -108 -43 -144 -59 l-66 -30 -20 46 c-28 66 -35 133 -22 198 19 92
52 115 270 189 52 18 96 32 98 31 1 -2 -5 -19 -13 -39z m195 -27 c44 -47 64
-99 68 -176 6 -110 -26 -145 -80 -86 -42 45 -61 93 -66 169 -4 57 -1 78 12 98
21 32 32 32 66 -5z"/>
<path d="M7158 6900 c-21 -13 -41 -74 -33 -100 9 -29 50 -53 75 -45 26 8 60
61 60 93 0 46 -59 77 -102 52z"/>
<path d="M6925 6806 c-32 -32 -40 -68 -23 -103 19 -40 68 -44 104 -8 23 23 26
32 21 68 -9 67 -58 87 -102 43z"/>
<path d="M6690 6720 c-26 -26 -27 -90 -2 -113 41 -37 96 -11 108 51 14 68 -58
110 -106 62z"/>
<path d="M6482 6653 c-17 -7 -42 -57 -42 -86 0 -13 8 -31 18 -40 61 -55 144
35 103 111 -11 21 -47 28 -79 15z"/>
<path d="M4689 5929 c-71 -26 -59 -149 14 -149 60 0 95 103 48 141 -26 21 -26
21 -62 8z"/>
<path d="M4436 5819 c-33 -38 -33 -73 -1 -104 30 -31 47 -31 81 -2 21 19 27
32 27 67 0 73 -60 95 -107 39z"/>
<path d="M4213 5740 c-61 -56 -19 -149 56 -125 23 7 51 53 51 82 0 56 -66 82
-107 43z"/>
<path d="M3989 5651 c-50 -50 -28 -131 35 -131 56 0 88 98 46 140 -27 27 -46
25 -81 -9z"/>
<path d="M3760 5570 c-27 -27 -34 -64 -18 -97 10 -22 21 -29 50 -31 31 -3 40
1 54 24 21 31 23 86 5 108 -18 22 -67 20 -91 -4z"/>
<path d="M3526 5481 c-23 -25 -24 -86 -1 -111 57 -63 149 37 99 108 -19 28
-74 30 -98 3z"/>
<path d="M9115 6457 c-59 -62 -152 -128 -264 -189 -44 -24 -81 -49 -81 -56 0
-7 16 -64 35 -128 117 -386 168 -951 124 -1389 -36 -368 -91 -608 -216 -954
-220 -610 -690 -1240 -1263 -1696 -246 -196 -459 -327 -735 -453 -547 -249
-1016 -358 -1587 -369 -286 -6 -393 2 -668 48 -255 42 -594 133 -734 197 l-38
17 153 44 c1026 294 2015 809 2839 1481 183 149 201 174 177 246 -14 45 -66
84 -109 84 -34 0 -82 -23 -118 -55 -56 -50 -365 -278 -510 -377 -473 -322
-969 -587 -1475 -788 -448 -179 -814 -285 -1306 -380 -59 -11 -117 -20 -129
-20 -13 0 -53 16 -89 37 -93 51 -253 155 -247 160 2 3 114 25 248 49 751 138
1362 342 2038 681 482 241 895 507 1245 802 221 186 245 217 225 291 -12 45
-47 77 -95 86 -39 7 -72 -8 -135 -63 -551 -479 -1303 -910 -2051 -1176 -221
-79 -676 -213 -687 -203 -1 2 46 22 105 46 822 329 1420 668 1963 1115 159
131 170 144 170 202 0 58 -25 99 -72 118 -68 27 -76 24 -261 -114 -545 -406
-1180 -724 -1927 -966 -452 -147 -933 -252 -1461 -319 -169 -22 -482 -56 -511
-56 -21 0 188 -239 351 -400 476 -472 984 -792 1621 -1018 282 -100 524 -158
845 -201 628 -86 1290 -32 1885 153 479 149 967 403 1365 710 716 552 1235
1281 1499 2106 228 710 265 1421 112 2162 -48 231 -154 589 -174 588 -4 -1
-29 -24 -57 -53z"/>
<path d="M8301 5867 c-13 -6 -33 -25 -45 -40 -18 -25 -21 -48 -28 -205 -3 -97
-12 -217 -18 -267 -58 -479 -232 -1007 -458 -1395 -244 -417 -549 -758 -977
-1090 -99 -76 -393 -277 -520 -354 -64 -40 -85 -67 -85 -113 0 -58 33 -93 87
-93 96 0 599 317 903 569 210 175 497 489 649 711 359 525 607 1219 650 1821
16 222 14 364 -6 406 -25 54 -98 78 -152 50z"/>
<path d="M8639 4905 c-33 -18 -45 -46 -81 -190 -155 -633 -421 -1161 -837
-1660 -499 -598 -1122 -1052 -1831 -1332 -167 -66 -415 -146 -570 -183 -195
-47 -215 -55 -234 -94 -21 -45 -20 -74 4 -113 42 -69 84 -68 386 7 561 139
1102 388 1549 713 340 248 634 517 864 792 313 374 515 700 684 1102 153 362
270 842 227 924 -24 44 -109 62 -161 34z"/>
<path d="M5815 4738 c-11 -6 -72 -55 -135 -108 -816 -684 -1662 -1126 -2650
-1387 -105 -27 -276 -62 -455 -92 -384 -64 -661 -90 -1052 -99 l-292 -7 95
-155 c52 -85 107 -170 121 -188 l26 -35 171 7 c351 14 817 72 1216 152 724
146 1506 485 2160 939 308 214 646 488 853 693 59 58 110 117 114 130 8 34 -4
92 -24 115 -37 41 -108 58 -148 35z"/>
</g>
</svg>
